<svg width="150" height="131" viewBox="0 0 150 131" fill="none" xmlns="http://www.w3.org/2000/svg">
<path d="M149.813 20.1099C149.505 19.244 148.863 18.5318 148.026 18.1441L119.428 4.9422C113.345 2.88147 107.147 1.25369 100.89 0.0639534C100.669 0.02081 100.45 0 100.234 0C98.6848 0 97.2976 1.06945 96.9524 2.63783C94.6674 12.6978 85.7621 20.2297 74.9996 20.2297C64.2376 20.2297 55.3318 12.6984 53.0472 2.63783C52.698 1.06945 51.3134 0 49.7653 0C49.5491 0 49.3298 0.02081 49.1095 0.0639534C42.8522 1.25369 36.6548 2.88147 30.562 4.9422L1.97416 18.1436C1.13261 18.5313 0.48597 19.2435 0.192088 20.1094C-0.111946 20.9854 -0.0571283 21.931 0.37126 22.7573L12.7864 47.2587C13.3676 48.4215 14.5497 49.1194 15.8003 49.1194C16.1231 49.1194 16.4505 49.0728 16.7733 48.9758L30.5625 44.8889V127.1C30.5625 128.967 32.0857 130.489 33.9576 130.489H116.043C117.91 130.489 119.429 128.966 119.429 127.1V44.8899L133.227 48.9768C133.55 49.0738 133.877 49.1205 134.199 49.1205C135.447 49.1205 136.625 48.4226 137.214 47.2597L149.634 22.7584C150.052 21.9315 150.112 20.9859 149.813 20.1099Z" fill="white"/>
</svg>